<?xml version="1.0" encoding="iso-8859-1"?>
<!-- Generator: Adobe Illustrator 19.0.0, SVG Export Plug-In . SVG Version: 6.00 Build 0)  -->
<svg version="1.1" id="Capa_1" xmlns="http://www.w3.org/2000/svg" xmlns:xlink="http://www.w3.org/1999/xlink" x="0px" y="0px"
	 viewBox="0 0 403.121 403.121" style="enable-background:new 0 0 403.121 403.121;" xml:space="preserve">
<g>
	<polygon style="fill:#F8305F;" points="174.115,60 228.515,60 201.315,147.2 	"/>
	<polygon style="fill:#F8305F;" points="201.315,8 244.515,8 228.515,60 	"/>
	<polygon style="fill:#F8305F;" points="228.515,60 244.515,8 287.715,60 	"/>
	<polygon style="fill:#F8305F;" points="210.915,116 228.515,60 287.715,60 224.515,124 	"/>
</g>
<path style="fill:#FFFFFF;" d="M201.315,395.2c-88.8,0-160.8-72-160.8-160.8c0-63.2,36.8-120.8,95.2-146.4l4.8-2.4l28.8,28.8
	l-11.2,4c-64,24-96,95.2-72,159.2s95.2,96,159.2,72s96-95.2,72-159.2c-12.8-32.8-38.4-59.2-72-72l-12-4l28-28.8l4.8,2.4
	c80.8,36,117.6,131.2,80.8,212C322.115,357.6,264.515,395.2,201.315,395.2z"/>
<g>
	<polygon style="fill:#F8305F;" points="115.715,60 158.115,8 174.115,60 	"/>
	<polygon style="fill:#F8305F;" points="174.115,60 201.315,8 228.515,60 	"/>
	<polygon style="fill:#F8305F;" points="115.715,60 174.115,60 191.715,116 178.115,124 	"/>
	<polygon style="fill:#F8305F;" points="158.115,8 201.315,8 174.115,60 	"/>
</g>
<path style="fill:#28150B;" d="M275.715,83.2c0,0,12.8-13.6,17.6-17.6c1.6-1.6,2.4-3.2,2.4-5.6c0-1.6-0.8-3.2-1.6-4.8l-43.2-52
	c-1.6-1.6-4-3.2-6.4-3.2h-86.4c-2.4,0-4.8,0.8-6.4,3.2l-43.2,51.2c-0.8,1.6-1.6,3.2-1.6,4.8c0,2.4,0.8,4,2.4,5.6l17.6,17.6
	c-83.2,41.6-117.6,143.2-76.8,226.4s141.6,118.4,225.6,76.8s118.4-142.4,76.8-225.6C336.515,126.4,309.315,99.2,275.715,83.2
	L275.715,83.2z M247.715,24.8l22.4,27.2h-31.2L247.715,24.8z M268.515,68l-49.6,50.4l16-50.4H268.515z M195.715,152.8
	c1.6,1.6,3.2,2.4,5.6,2.4c2.4,0,4-0.8,5.6-2.4l28-28.8c60.8,19.2,95.2,83.2,76,144c-19.2,60.8-83.2,95.2-144,76s-95.2-83.2-76-144
	c11.2-36,40-64.8,76-76L195.715,152.8z M185.315,68h32l-16,52.8L185.315,68z M233.315,16l-7.2,22.4l-12-22.4H233.315z M214.915,52
	h-27.2l13.6-26.4L214.915,52z M188.515,16l-12,22.4l-7.2-22.4H188.515z M183.715,118.4l-37.6-38.4l0,0l-12-12h33.6L183.715,118.4z
	 M154.915,24.8l8,27.2h-30.4L154.915,24.8z M201.315,387.2c-84,0-152.8-68-152.8-152.8c0-60,35.2-114.4,90.4-139.2l16,16
	c-68,25.6-101.6,101.6-76,169.6s101.6,101.6,169.6,76s101.6-101.6,76-169.6c-13.6-35.2-40.8-63.2-76-76l16-16
	c76.8,34.4,111.2,124.8,76.8,201.6C316.515,352,261.315,387.2,201.315,387.2z"/>
<g>
</g>
<g>
</g>
<g>
</g>
<g>
</g>
<g>
</g>
<g>
</g>
<g>
</g>
<g>
</g>
<g>
</g>
<g>
</g>
<g>
</g>
<g>
</g>
<g>
</g>
<g>
</g>
<g>
</g>
</svg>
