<?xml version="1.0" encoding="iso-8859-1"?>
<!-- Generator: Adobe Illustrator 19.0.0, SVG Export Plug-In . SVG Version: 6.00 Build 0)  -->
<svg version="1.1" id="Capa_1" xmlns="http://www.w3.org/2000/svg" xmlns:xlink="http://www.w3.org/1999/xlink" x="0px" y="0px"
	 viewBox="0 0 392.322 392.322" style="enable-background:new 0 0 392.322 392.322;" xml:space="preserve">
<path style="fill:#FFFFFF;" d="M165.309,59.111c-8-5.6-21.6-18.4-23.2-30.4c-0.8-4.8,0.8-8.8,4-12c2.4-3.2,5.6-4.8,9.6-4.8
	c5.6,0.8,10.4,3.2,13.6,8c3.2-4.8,8.8-7.2,14.4-8c4,0,7.2,1.6,9.6,4c3.2,3.2,4.8,7.2,4,12c-1.6,12-15.2,24.8-23.2,30.4l-4,3.2
	L165.309,59.111z"/>
<g>
	<path style="fill:#F8305F;" d="M103.709,260.711c-28,0-50.4-22.4-50.4-50.4c0-6.4,0.8-12.8,3.2-18.4l8.8-23.2h108l-23.2,60
		C143.709,247.911,124.509,260.711,103.709,260.711z"/>
	<path style="fill:#F8305F;" d="M289.309,260.711c-20.8,0-39.2-12.8-47.2-32l-23.2-60h108.8l8.8,23.2c10.4,26.4-2.4,55.2-28.8,65.6
		C301.309,259.111,295.709,260.711,289.309,260.711L289.309,260.711z"/>
</g>
<path style="fill:#FFFFFF;" d="M230.109,98.311c-8-5.6-21.6-18.4-23.2-30.4c-0.8-4.8,0.8-9.6,4-12c2.4-2.4,5.6-4,9.6-4
	c5.6,0.8,10.4,3.2,13.6,8l0,0c3.2-4.8,8.8-7.2,14.4-8c4,0,7.2,1.6,9.6,4.8c3.2,3.2,4.8,8,4,12.8c-1.6,12-15.2,24.8-23.2,30.4l-4,3.2
	L230.109,98.311z"/>
<g>
	<path style="fill:#28150B;" d="M166.109,68.711c2.4,0.8,4.8,0.8,7.2,0c11.2-5.6,29.6-22.4,32-39.2c0.8-7.2-1.6-14.4-6.4-19.2
		c-4.8-4-9.6-6.4-15.2-6.4c-4.8,0-9.6,1.6-13.6,4.8c-4.8-3.2-9.6-4.8-14.4-4.8c-5.6,0-11.2,2.4-15.2,6.4c-5.6,4.8-8,12-6.4,19.2
		C136.509,46.311,154.109,63.111,166.109,68.711z M150.909,21.511c0.8-1.6,2.4-2.4,4-2.4c3.2,0.8,5.6,2.4,7.2,4.8
		c1.6,2.4,4,3.2,6.4,3.2l0,0c2.4,0,4.8-1.6,6.4-3.2c1.6-2.4,4.8-4,7.2-4.8c1.6,0,3.2,0.8,4,2.4c1.6,1.6,2.4,3.2,1.6,5.6
		c-3.2,10.4-10.4,19.2-20,24.8c-9.6-5.6-16-14.4-20-24.8C149.309,24.711,150.109,23.111,150.909,21.511z"/>
	<path style="fill:#28150B;" d="M230.909,107.911c0.8,0.8,2.4,0.8,4,0.8s2.4,0,4-0.8c11.2-5.6,29.6-22.4,32-39.2
		c0.8-7.2-1.6-14.4-6.4-19.2c-4-4-9.6-6.4-15.2-6.4c-4.8,0-9.6,1.6-13.6,4.8c-4-3.2-8.8-4.8-14.4-4.8s-11.2,2.4-15.2,6.4
		c-5.6,4.8-8,12-6.4,19.2C201.309,85.511,219.709,102.311,230.909,107.911z M216.509,61.511c0.8-1.6,2.4-2.4,4-2.4
		c3.2,0.8,5.6,2.4,7.2,4.8c2.4,4,7.2,4.8,11.2,1.6c0.8-0.8,1.6-0.8,1.6-1.6c1.6-2.4,4-4,7.2-4.8c1.6,0,3.2,0.8,4,2.4
		c1.6,1.6,2.4,3.2,1.6,5.6c-3.2,10.4-10.4,19.2-20,24.8c-9.6-5.6-16-14.4-20-24.8C214.109,64.711,214.909,62.311,216.509,61.511
		L216.509,61.511z"/>
	<path style="fill:#28150B;" d="M188.509,132.711l-93.6-36.8c-4-1.6-8,0-10.4,4l-25.6,64.8l0,0l-8.8,23.2
		c-10.4,27.2,0.8,57.6,25.6,72l-37.6,96l-27.2-10.4c-4-1.6-8.8,0.8-10.4,4.8c-1.6,4,0.8,8,4,9.6l34.4,13.6l0,0l34.4,13.6
		c4,1.6,8.8-0.8,10.4-4.8c1.6-4-0.8-8-4-9.6l-27.2-10.4l37.6-96c28.8,7.2,57.6-8,68-35.2l24-59.2l0,0l11.2-28.8
		C194.909,139.111,193.309,134.311,188.509,132.711L188.509,132.711z M143.709,225.511c-8,21.6-32.8,32.8-54.4,24.8
		c-21.6-8-32.8-32.8-24.8-54.4c0-0.8,0-0.8,0.8-1.6l7.2-17.6h91.2L143.709,225.511z M169.309,160.711h-91.2l18.4-47.2l79.2,31.2
		L169.309,160.711z"/>
	<path style="fill:#28150B;" d="M382.109,345.511l-27.2,10.4l-37.6-96c25.6-14.4,36-44.8,25.6-72l-8.8-23.2l0,0l-25.6-64.8
		c-1.6-4-6.4-6.4-10.4-4.8l0,0l-93.6,37.6c-4,1.6-6.4,6.4-4.8,10.4l11.2,28.8l0,0l23.2,60c8.8,22.4,30.4,36.8,54.4,36.8l0,0
		c4.8,0,9.6-0.8,13.6-1.6l38.4,95.2l-27.2,10.4c-4,1.6-6.4,6.4-4.8,10.4s6.4,6.4,10.4,4.8l0,0l34.4-13.6l0,0l34.4-13.6
		c4-1.6,5.6-6.4,4-10.4C390.109,346.311,386.109,344.711,382.109,345.511L382.109,345.511z M218.109,144.711l79.2-31.2l18.4,47.2
		h-92L218.109,144.711z M289.309,251.911L289.309,251.911c-17.6,0-32.8-10.4-39.2-27.2l-19.2-48.8h91.2l7.2,17.6
		c8.8,21.6-2.4,46.4-24,55.2C299.709,251.111,294.109,251.911,289.309,251.911L289.309,251.911z"/>
</g>
<g>
</g>
<g>
</g>
<g>
</g>
<g>
</g>
<g>
</g>
<g>
</g>
<g>
</g>
<g>
</g>
<g>
</g>
<g>
</g>
<g>
</g>
<g>
</g>
<g>
</g>
<g>
</g>
<g>
</g>
</svg>
